HIERARCHY
ROOT hip
{
	OFFSET 0.000000 0.000000 0.000000 
	CHANNELS 6 Xposition Yposition Zposition Xrotation Zrotation Yrotation
	JOINT abdomen
	{
		OFFSET 0.000000 3.402643 0.000000 
		CHANNELS 3 Xrotation Zrotation Yrotation
		JOINT chest
		{
			OFFSET 0.000000 8.438565 -0.680529 
			CHANNELS 3 Xrotation Zrotation Yrotation
			JOINT neck
			{
				OFFSET 0.000000 10.207942 -0.272212 
				CHANNELS 3 Xrotation Zrotation Yrotation
				JOINT head
				{
					OFFSET 0.000000 3.130431 0.000000 
					CHANNELS 3 Xrotation Zrotation Yrotation
					End Site
					{
						OFFSET 0.000000 3.130435 0.000000 
					}
				}
			}
			JOINT lCollar
			{
				OFFSET 3.470700 6.669187 -0.816635 
				CHANNELS 3 Yrotation Zrotation Xrotation
				JOINT lShldr
				{
					OFFSET 3.198488 0.000000 0.000000 
					CHANNELS 3 Zrotation Yrotation Xrotation
					JOINT lForeArm
					{
						OFFSET 10.139888 0.000000 0.000000 
						CHANNELS 3 Yrotation Zrotation Xrotation
						JOINT lHand
						{
							OFFSET 8.370511 0.000000 0.000000 
							CHANNELS 3 Zrotation Yrotation Xrotation
							End Site
							{
								OFFSET 4.083176 0.000000 0.000000 
							}
						}
					}
				}
			}
			JOINT rCollar
			{
				OFFSET -3.470700 6.669187 -0.816635 
				CHANNELS 3 Yrotation Zrotation Xrotation
				JOINT rShldr
				{
					OFFSET -3.198488 0.000000 0.000000 
					CHANNELS 3 Zrotation Yrotation Xrotation
					JOINT rForeArm
					{
						OFFSET -10.139888 0.000000 0.000000 
						CHANNELS 3 Yrotation Zrotation Xrotation
						JOINT rHand
						{
							OFFSET -8.370511 0.000000 0.000000 
							CHANNELS 3 Zrotation Yrotation Xrotation
							End Site
							{
								OFFSET -4.083176 0.000000 0.000000 
							}
						}
					}
				}
			}
		}
	}
	JOINT lThigh
	{
		OFFSET 5.308129 -1.633274 1.361059 
		CHANNELS 3 Xrotation Zrotation Yrotation
		JOINT lShin
		{
			OFFSET -2.041588 -20.007561 0.000000 
			CHANNELS 3 Xrotation Zrotation Yrotation
			JOINT lFoot
			{
				OFFSET 0.000000 -19.190928 -1.224953 
				CHANNELS 3 Xrotation Yrotation Zrotation
				End Site
				{
					OFFSET 0.000000 -2.449906 4.627600 
				}
			}
		}
	}
	JOINT rThigh
	{
		OFFSET -5.308129 -1.633274 1.361059 
		CHANNELS 3 Xrotation Zrotation Yrotation
		JOINT rShin
		{
			OFFSET 2.041588 -20.007561 0.000000 
			CHANNELS 3 Xrotation Zrotation Yrotation
			JOINT rFoot
			{
				OFFSET 0.000000 -19.190928 -1.224953 
				CHANNELS 3 Xrotation Yrotation Zrotation
				End Site
				{
					OFFSET 0.000000 -2.449906 4.627600 
				}
			}
		}
	}
}
MOTION
Frames: 19
Frame Time: 0.033333
4.817910 38.711121 62.267746 -7.681773 1.005254 35.856087 0.000000 0.000000 0.000000 22.309982 3.890309 -27.032495 -35.696972 -3.105944 -4.430545 48.930305 5.394973 -4.305728 -3.521967 9.154817 6.304141 -31.582504 -100.326561 -49.628628 -13.436862 6.033387 82.816498 65.661972 35.901909 5.741741 3.089181 -14.089146 8.026228 -45.974800 85.755142 -134.940475 20.429304 -8.909691 85.883301 -59.972359 -37.092216 4.714190 7.953039 42.652428 42.145142 67.275169 -2.080173 -16.437956 -22.926182 -1.976925 8.302433 -38.670460 -18.836945 -9.210367 26.207054 -5.344176 20.455126 25.941648 1.071075 5.371187 
4.178786 36.648235 64.589111 -6.733792 -0.030175 39.423832 0.000000 0.000000 0.000000 19.835428 3.226673 -23.340956 -32.775654 -4.849770 -5.616061 42.302311 9.903171 -6.235446 -3.521967 9.154817 6.304141 39.422924 -104.539955 -118.581879 -11.094716 4.008147 86.304367 65.665398 36.863419 6.357712 3.089181 -14.089146 8.026228 79.113007 73.464302 -15.945136 21.570322 -6.693048 86.743271 -57.922081 -36.322376 3.678954 -0.841077 46.874798 37.412773 74.920914 1.475140 -11.347363 -23.944710 -1.965861 7.969683 -52.428791 -20.027853 -6.807840 53.032745 -10.650347 20.989992 17.519199 0.368946 3.680090 
4.157445 35.055687 66.595543 -11.215014 1.649800 40.762775 0.000000 0.000000 0.000000 26.397469 6.017311 -20.480659 -38.721188 -4.765288 -7.359603 47.777596 8.592592 -7.318083 -3.521967 9.154817 6.304141 -134.636536 -73.886360 56.270317 -10.395373 2.316459 85.154030 65.456802 35.517227 5.429114 3.089181 -14.089146 8.026228 81.345650 70.190483 -15.794153 22.427216 -6.408138 84.769203 -59.262062 -36.682568 4.266713 1.683328 50.589970 34.801479 77.929413 5.058754 -8.313437 -24.446468 -2.102309 8.432112 -49.161892 -19.946459 -9.438974 61.806927 -9.531460 9.325119 4.682909 -0.020637 0.733644 
4.099974 33.886238 68.299843 -9.889803 1.253940 43.841450 0.000000 0.000000 0.000000 24.622160 6.903170 -21.770632 -33.429939 -4.269120 -9.332931 46.176521 8.479645 -8.580073 -3.521967 9.154817 6.304141 37.751850 -105.494225 -116.291855 -10.028730 1.586610 88.099030 65.141525 34.337479 4.593657 3.089181 -14.089146 8.026228 85.160515 69.857216 -16.097286 24.808357 -6.378219 86.348137 -59.486603 -36.408672 4.179764 -2.150000 51.571411 29.093109 78.140854 6.454123 -8.247663 -25.115086 -2.133984 8.384723 -52.335945 -21.206415 -9.573085 70.268333 -10.516453 4.122163 -3.502765 -0.052838 -0.264949 
4.129858 33.006687 69.181137 -7.797867 0.784259 44.712414 0.000000 0.000000 0.000000 23.783291 7.551958 -24.217525 -31.384224 -5.628597 -9.303776 43.808159 9.964776 -9.400812 -3.521967 9.154817 6.304141 11.152798 -101.755211 -92.712273 -9.767807 1.727726 88.028755 63.509293 34.148537 4.046927 3.089181 -14.089146 8.026228 89.681168 76.164398 -12.901100 23.476282 -8.011547 87.027107 -59.126270 -36.967888 4.397089 -3.677666 51.808128 27.826881 78.260025 6.581512 -8.009975 -26.396631 -2.436932 9.064734 -56.280979 -21.899918 -8.848939 75.450966 -11.268163 0.750989 -8.111563 0.010320 -0.607018 
4.261780 32.343185 70.009659 -7.333158 1.143442 45.490307 0.000000 0.000000 0.000000 24.668669 8.362116 -26.654627 -32.679718 -6.609848 -8.888129 43.388073 10.592478 -9.688015 -3.521967 9.154817 6.304141 -23.525297 -102.589127 -61.464504 -10.444469 2.920200 86.896461 60.605450 33.613426 2.987777 3.089181 -14.089146 8.026228 87.892097 81.915337 -13.836731 22.451614 -9.306491 87.037773 -59.693382 -35.827003 3.904136 -3.187333 53.412849 28.680206 78.658531 6.864201 -9.837019 -25.450787 -2.251286 8.675829 -57.468838 -21.942505 -7.937530 79.481461 -12.275274 -0.950722 -11.752531 0.059636 -0.893918 
4.557726 31.951693 70.728706 -6.119224 2.688177 45.866009 0.000000 0.000000 0.000000 24.938850 7.004905 -28.807419 -32.774326 -6.691421 -8.643411 42.659786 10.622889 -9.638246 -3.521967 9.154817 6.304141 -41.323856 -105.173561 -43.388229 -10.515218 2.906915 87.889534 60.249004 32.405655 2.214325 3.089181 -14.089146 8.026228 74.687622 85.123924 -25.858112 21.316114 -9.788933 86.999336 -58.956547 -36.493824 4.079247 -0.856749 52.794975 30.412729 77.948212 6.630537 -11.697482 -24.520828 -2.040677 8.165815 -58.430943 -22.369932 -6.291831 82.795296 -13.436644 -3.907645 -14.523422 0.122125 -1.208063 
4.875389 31.804951 71.291489 -5.627404 3.213292 46.217094 0.000000 0.000000 0.000000 24.482447 6.696473 -30.046272 -31.455650 -6.233353 -8.301437 41.810169 10.057624 -9.184228 -3.521967 9.154817 6.304141 -46.352406 -106.643448 -38.673203 -10.350989 2.687023 87.424950 59.988472 31.216467 1.489130 3.089181 -14.089146 8.026228 51.951366 86.133499 -47.063705 20.350449 -10.158273 85.670456 -59.113476 -36.428772 4.079928 1.208217 52.614441 31.931992 76.754990 6.483782 -12.954165 -24.595673 -2.056907 8.224298 -58.455482 -22.528664 -5.467780 84.748146 -14.042150 -4.760310 -16.348839 0.185196 -1.355680 
5.109420 31.771147 71.673622 -5.369253 2.999555 47.713604 0.000000 0.000000 0.000000 22.884529 7.406128 -31.555178 -30.236475 -6.444785 -7.764446 40.577675 9.579753 -9.012061 -3.521967 9.154817 6.304141 -44.952709 -107.245232 -40.555222 -10.335045 2.732594 86.797897 60.084476 31.588375 1.725026 3.089181 -14.089146 8.026228 46.025860 86.264839 -53.200695 20.688076 -10.372923 85.254395 -59.306381 -36.483440 4.179549 -0.083981 52.727348 30.439075 76.304253 6.727254 -13.360620 -24.309984 -1.983850 8.075064 -57.784924 -23.433563 -5.645769 85.661575 -14.111108 -5.202233 -18.271120 0.186872 -1.483119 
5.311161 31.883326 71.894470 -5.146916 3.013887 48.145054 0.000000 0.000000 0.000000 21.708303 7.435668 -31.674995 -29.961653 -7.106808 -7.528966 38.778511 9.617930 -9.390852 -3.521967 9.154817 6.304141 -43.334282 -107.369522 -40.871433 -10.182434 2.439784 86.332047 59.548759 31.254307 1.421896 3.089181 -14.089146 8.026228 47.949986 85.361618 -51.072414 21.568268 -10.014680 85.424370 -58.790504 -36.269505 3.900763 -0.090662 52.330864 30.036963 75.743423 6.729230 -13.102451 -23.699245 -1.840674 7.615852 -57.348141 -23.698500 -5.795214 85.903725 -14.091416 -6.440330 -19.024199 0.218161 -1.445221 
5.485078 32.074783 71.851601 -5.010240 3.197834 47.597633 0.000000 0.000000 0.000000 21.587423 7.023727 -31.076427 -29.054327 -7.279095 -7.650109 36.255646 9.442486 -9.811291 -3.521967 9.154817 6.304141 -42.214787 -107.336899 -41.698170 -10.107159 2.366810 85.552589 59.558792 30.727652 1.135486 3.089181 -14.089146 8.026228 42.562904 85.316200 -55.847775 21.445444 -10.208272 85.194420 -58.680820 -36.743107 4.132385 0.963645 51.568871 30.769230 75.427773 6.474391 -13.322408 -23.123837 -1.725670 7.376887 -57.756905 -23.707520 -5.669140 85.945580 -14.150231 -5.842234 -16.944408 0.141566 -1.326606 
5.563709 32.294468 71.509537 -5.230732 2.933560 47.239647 0.000000 0.000000 0.000000 22.371635 7.275258 -30.397181 -29.000696 -7.307041 -8.261743 33.795593 9.065141 -10.562598 -3.521967 9.154817 6.304141 -42.426685 -107.918144 -43.068130 -10.179759 2.471999 86.318085 58.883690 30.455328 0.839183 3.089181 -14.089146 8.026228 24.079464 85.223625 -74.002182 21.223379 -10.650266 84.704788 -58.345798 -36.433804 3.870281 0.642937 51.385792 30.657219 76.148476 6.551437 -14.783012 -22.735191 -1.687711 7.317276 -57.864094 -23.892958 -5.949340 84.931686 -13.955151 -4.236868 -14.446079 0.091181 -1.114560 
5.524257 32.547939 70.943161 -5.981015 2.473420 47.127972 0.000000 0.000000 0.000000 23.834299 7.756598 -29.668678 -28.403349 -6.922431 -9.199082 31.149883 8.937243 -11.310596 -3.521967 9.154817 6.304141 -44.591091 -108.512672 -40.118584 -10.095515 2.334142 86.111908 59.341270 30.908747 1.187142 3.089181 -14.089146 8.026228 2.664591 84.554504 -95.709579 20.735296 -11.458312 84.102440 -57.149601 -36.260483 3.440685 -1.182727 51.923557 29.240654 77.854950 7.116009 -17.059397 -21.892509 -1.581579 7.126398 -57.449764 -23.817825 -6.255320 83.130257 -13.661454 -2.457812 -10.893520 0.032345 -0.807633 
5.464016 32.784195 70.137924 -6.278355 2.202062 47.409626 0.000000 0.000000 0.000000 24.543402 7.576642 -28.884354 -28.559885 -7.175188 -10.021330 29.602730 9.011894 -12.262021 -3.521967 9.154817 6.304141 -43.094418 -108.921906 -41.936047 -10.242620 2.625910 85.236526 58.709534 31.037048 1.107584 3.089181 -14.089146 8.026228 -0.395441 82.606285 -98.144356 21.261679 -11.746534 83.645889 -56.665020 -35.742569 3.034150 -5.179647 51.584850 25.250851 80.327744 7.964948 -20.213133 -19.733381 -1.254733 6.211879 -56.961182 -24.139772 -6.473794 80.515495 -13.300552 -2.314295 -8.873790 -0.026066 -0.518044 
5.413929 33.149117 69.119843 -7.121130 1.847658 47.698807 0.000000 0.000000 0.000000 25.190212 7.186349 -27.926733 -27.902655 -7.258759 -10.978015 28.239557 9.550323 -13.203383 -3.521967 9.154817 6.304141 -40.126400 -108.879562 -45.149494 -10.321961 2.842733 84.008133 57.996555 30.355085 0.602690 3.089181 -14.089146 8.026228 5.762010 80.404877 -91.733582 22.249609 -11.880141 83.712006 -56.464619 -35.184444 2.679825 -9.319077 51.282356 20.919712 82.872452 8.991816 -23.950550 -18.442904 -1.165088 5.960780 -55.476566 -24.237370 -6.937969 76.878159 -12.791930 -1.608065 -6.112021 -0.086296 -0.123382 
5.449777 33.727257 67.783287 -7.716258 1.670207 48.298843 0.000000 0.000000 0.000000 25.038872 6.001741 -27.446398 -27.152294 -7.071606 -12.312379 27.666037 9.927499 -14.209619 -3.521967 9.154817 6.304141 -34.731945 -108.450806 -50.062096 -10.421381 3.077775 82.674782 56.546192 29.947948 0.096432 3.089181 -14.089146 8.026228 18.123661 77.955284 -79.994690 24.261972 -11.758637 82.070068 -54.537247 -35.050064 2.103935 -13.662588 49.465023 16.169777 84.895653 9.713940 -25.984882 -18.420521 -1.248573 6.413022 -53.431789 -24.879444 -7.250190 71.733459 -12.284331 -0.137527 -2.186093 -0.075497 0.380021 
5.618431 34.452129 66.021950 -7.985985 1.474015 48.781593 0.000000 0.000000 0.000000 23.757925 4.501409 -27.689548 -25.626207 -6.752656 -13.523449 26.708899 10.389557 -15.087063 -3.521967 9.154817 6.304141 -27.879803 -107.822388 -55.601433 -10.896079 4.038226 79.752403 55.395237 30.239603 0.016108 3.089181 -14.089146 8.026228 31.536472 75.518112 -68.134338 27.401279 -10.960044 81.271736 -50.875927 -34.551167 0.934612 -16.561972 45.797031 12.437721 85.717674 10.250990 -29.619488 -16.907850 -1.126188 6.243139 -51.442471 -25.867512 -7.287053 65.032959 -11.785703 2.752428 4.914311 -0.018497 1.391580 
5.976833 35.374588 63.844105 -8.290184 1.471784 47.960644 0.000000 0.000000 0.000000 22.454966 2.921656 -27.712431 -24.997606 -5.923002 -14.385837 27.053928 10.041802 -15.247752 -3.521967 9.154817 6.304141 -22.305645 -107.266434 -59.672165 -11.782362 5.250342 76.035873 54.661488 30.105814 -0.191902 3.089181 -14.089146 8.026228 44.592598 72.709740 -56.850750 32.461617 -8.588881 80.315758 -49.130386 -33.432209 0.020677 -15.877553 41.661697 11.535266 84.254021 10.261673 -31.472265 -18.601154 -1.516460 7.462565 -48.602592 -26.581553 -7.583072 55.181870 -10.907074 6.243773 15.318893 0.270908 3.113780 
6.456367 36.567204 61.237644 -9.434749 1.271083 45.600357 0.000000 0.000000 0.000000 21.929733 2.896848 -27.075422 -23.206429 -4.718885 -14.484028 26.384621 8.998569 -14.676476 -3.521967 9.154817 6.304141 -19.194082 -106.484367 -61.189617 -14.711915 6.681806 71.697212 53.623096 30.150476 -0.385377 3.089181 -14.089146 8.026228 53.484245 69.908501 -48.483147 39.744247 -4.367756 77.821152 -45.209690 -32.610954 -1.183390 -13.114971 38.288208 12.445203 81.001396 10.231932 -35.863033 -20.418280 -2.011296 9.049170 -42.528374 -26.083363 -8.814146 39.244488 -8.982780 11.877089 29.489100 1.306197 6.052970 
